<svg width="90.000000" height="90.000000" viewBox="0 0 90 90" fill="none" xmlns="http://www.w3.org/2000/svg" xmlns:xlink="http://www.w3.org/1999/xlink">
	<desc>
			Created with Pixso.
	</desc>
	<defs>
		<clipPath id="clip366_205">
			<rect id="bulb-light-on" rx="0.000000" width="86.250000" height="86.250000" transform="translate(1.875000 1.875000)" fill="white" fill-opacity="0"/>
		</clipPath>
	</defs>
	<rect id="bulb-light-on" rx="0.000000" width="86.250000" height="86.250000" transform="translate(1.875000 1.875000)" fill="#FFFFFF" fill-opacity="0"/>
	<g clip-path="url(#clip366_205)">
		<path id="Vector" d="M51.97 71.86C51.97 75.66 48.89 78.75 45.09 78.75C41.32 78.75 38.26 75.72 38.21 71.96L38.11 65.13C38.06 62.78 36.54 60.76 34.56 59.48C29.55 56.22 26.25 50.68 26.25 44.39C26.25 34.37 34.64 26.25 45 26.25C55.35 26.25 63.75 34.37 63.75 44.39C63.75 50.68 60.44 56.22 55.42 59.48C53.46 60.75 51.97 62.79 51.97 65.13L51.97 71.86ZM51.97 65.13L38.11 65.13M45 16.87L45 9.37M73.12 45L80.62 45M64.88 64.88L70.18 70.19M9.37 45L16.87 45M19.8 19.8L25.11 25.11M25.11 64.88L19.8 70.18M70.19 19.8L64.88 25.11" stroke="#FFEFDC" stroke-opacity="1.000000" stroke-width="4.687500" stroke-linecap="round"/>
	</g>
</svg>
