<svg width="90.000000" height="90.000000" viewBox="0 0 90 90" fill="none" xmlns="http://www.w3.org/2000/svg" xmlns:xlink="http://www.w3.org/1999/xlink">
	<desc>
			Created with Pixso.
	</desc>
	<defs>
		<clipPath id="clip366_37">
			<rect rx="0.000000" width="86.250000" height="86.250000" transform="translate(1.875000 1.875000)" fill="white" fill-opacity="0"/>
		</clipPath>
	</defs>
	<rect rx="0.000000" width="86.250000" height="86.250000" transform="translate(1.875000 1.875000)" fill="#FFFFFF" fill-opacity="0"/>
	<g clip-path="url(#clip366_37)">
		<path d="M78.75 30L11.25 30M30 18.75L30 11.25M60 18.75L60 11.25M18.75 15L18.37 15C14.43 15 11.25 18.19 11.25 22.12L11.25 67.5C11.25 71.64 14.6 75 18.75 75L71.25 75C75.39 75 78.75 71.64 78.75 67.5L78.75 22.12C78.75 18.19 75.55 15 71.62 15L71.25 15M41.25 15L48.75 15M57.19 45.41L44.55 61.17C43.15 62.91 40.55 63.05 38.97 61.47L33.75 56.25" stroke="#000000" stroke-opacity="1.000000" stroke-width="4.687500" stroke-linecap="round"/>
	</g>
</svg>
