<svg width="90.000000" height="90.000000" viewBox="0 0 90 90" fill="none" xmlns="http://www.w3.org/2000/svg" xmlns:xlink="http://www.w3.org/1999/xlink">
	<desc>
			Created with Pixso.
	</desc>
	<defs>
		<clipPath id="clip366_210">
			<rect id="dashboard" rx="0.000000" width="86.250000" height="86.250000" transform="translate(1.875000 1.875000)" fill="white" fill-opacity="0"/>
		</clipPath>
	</defs>
	<rect id="dashboard" rx="0.000000" width="86.250000" height="86.250000" transform="translate(1.875000 1.875000)" fill="#FFFFFF" fill-opacity="0"/>
	<g clip-path="url(#clip366_210)">
		<path id="Vector" d="M20.62 54.37L28.12 54.37C32.26 54.37 35.62 57.73 35.62 61.87L35.62 69.37C35.62 73.51 32.26 76.87 28.12 76.87L20.62 76.87C16.48 76.87 13.12 73.51 13.12 69.37L13.12 61.87C13.12 57.73 16.48 54.37 20.62 54.37Z" stroke="#FFEFDC" stroke-opacity="1.000000" stroke-width="4.687500"/>
		<path id="Vector" d="M61.87 54.37L69.37 54.37C73.51 54.37 76.87 57.73 76.87 61.87L76.87 69.37C76.87 73.51 73.51 76.87 69.37 76.87L61.87 76.87C57.73 76.87 54.37 73.51 54.37 69.37L54.37 61.87C54.37 57.73 57.73 54.37 61.87 54.37Z" stroke="#FFEFDC" stroke-opacity="1.000000" stroke-width="4.687500"/>
		<path id="Vector" d="M20.62 13.12L28.12 13.12C32.26 13.12 35.62 16.48 35.62 20.62L35.62 28.12C35.62 32.26 32.26 35.62 28.12 35.62L20.62 35.62C16.48 35.62 13.12 32.26 13.12 28.12L13.12 20.62C13.12 16.48 16.48 13.12 20.62 13.12Z" stroke="#FFEFDC" stroke-opacity="1.000000" stroke-width="4.687500"/>
		<path id="Vector" d="M61.87 13.12L69.37 13.12C73.51 13.12 76.87 16.48 76.87 20.62L76.87 28.12C76.87 32.26 73.51 35.62 69.37 35.62L61.87 35.62C57.73 35.62 54.37 32.26 54.37 28.12L54.37 20.62C54.37 16.48 57.73 13.12 61.87 13.12Z" stroke="#FFEFDC" stroke-opacity="1.000000" stroke-width="4.687500"/>
	</g>
</svg>
