<svg width="90.000000" height="90.000000" viewBox="0 0 90 90" fill="none" xmlns="http://www.w3.org/2000/svg" xmlns:xlink="http://www.w3.org/1999/xlink">
	<desc>
			Created with Pixso.
	</desc>
	<defs>
		<clipPath id="clip366_218">
			<rect id="education" rx="0.000000" width="86.250000" height="86.250000" transform="translate(1.875000 1.875000)" fill="white" fill-opacity="0"/>
		</clipPath>
	</defs>
	<rect id="education" rx="0.000000" width="86.250000" height="86.250000" transform="translate(1.875000 1.875000)" fill="#FFFFFF" fill-opacity="0"/>
	<g clip-path="url(#clip366_218)">
		<path id="Vector" d="M67.5 37.12L67.5 56.82C67.5 58.64 66.63 60.36 65.16 61.45C54.3 69.5 39.45 69.5 28.58 61.45C27.11 60.36 26.25 58.64 26.25 56.82L26.25 38.43M52.5 30L72.34 36.06C73.92 36.54 75 38 75 39.65L75 59.46M75 66.34L75 71.25M72.38 35.41C75.73 34.24 75.73 29.5 72.38 28.33L48.71 20.05C46.31 19.2 43.69 19.2 41.28 20.05L17.61 28.33C14.26 29.5 14.26 34.24 17.61 35.41L41.28 43.7C43.69 44.54 46.31 44.54 48.71 43.7L72.38 35.41Z" stroke="#FFEFDC" stroke-opacity="1.000000" stroke-width="4.687500" stroke-linecap="round"/>
	</g>
</svg>
