<svg width="90.000000" height="90.000000" viewBox="0 0 90 90" fill="none" xmlns="http://www.w3.org/2000/svg" xmlns:xlink="http://www.w3.org/1999/xlink">
	<desc>
			Created with Pixso.
	</desc>
	<defs>
		<clipPath id="clip366_42">
			<rect rx="0.000000" width="86.250000" height="86.250000" transform="translate(1.875000 1.875000)" fill="white" fill-opacity="0"/>
		</clipPath>
	</defs>
	<rect rx="0.000000" width="86.250000" height="86.250000" transform="translate(1.875000 1.875000)" fill="#FFFFFF" fill-opacity="0"/>
	<g clip-path="url(#clip366_42)">
		<path d="M67.5 37.5L52.5 37.5C48.35 37.5 45 34.14 45 30L45 15M67.5 67.5C67.5 71.64 64.14 75 60 75L30 75C25.85 75 22.5 71.64 22.5 67.5L22.5 22.5C22.5 18.35 25.85 15 30 15L45.64 15C47.63 15 49.54 15.79 50.94 17.19L65.3 31.55C66.71 32.95 67.5 34.86 67.5 36.85L67.5 67.5Z" stroke="#000000" stroke-opacity="1.000000" stroke-width="4.687500" stroke-linecap="round"/>
	</g>
</svg>
