<svg width="44.000000" height="51.000000" viewBox="0 0 44 51" fill="none" xmlns="http://www.w3.org/2000/svg" xmlns:xlink="http://www.w3.org/1999/xlink">
	<desc>
			Created with Pixso.
	</desc>
	<defs>
		<clipPath id="clip366_114">
			<rect rx="0.000000" width="43.000000" height="50.000000" transform="translate(0.500000 0.500000)" fill="white" fill-opacity="0"/>
		</clipPath>
	</defs>
	<rect rx="0.000000" width="43.000000" height="50.000000" transform="translate(0.500000 0.500000)" fill="#FFFFFF" fill-opacity="0"/>
	<g clip-path="url(#clip366_114)">
		<path d="M9.64 9.03C11.9 11.58 14.16 14.13 16.42 16.67C16.45 23.77 16.48 30.87 16.51 37.98L30.5 37.98L35.37 44.67L9.64 44.67L9.64 9.03Z" fill="#FFEFDC" fill-opacity="1.000000" fill-rule="nonzero"/>
		<path d="M37.51 47.43C37.35 46.77 37.54 45.93 38.15 45.4C38.92 44.72 40.11 44.78 40.76 45.28C41.19 45.62 41.22 46 41.57 47.6C42.16 50.25 42.42 50.78 42.15 50.96C41.9 51.14 41.07 50.54 39.43 49.34C37.91 48.23 37.63 47.91 37.51 47.43L37.51 47.43Z" fill="#FFEFDC" fill-opacity="1.000000" fill-rule="nonzero"/>
		<path d="M7.21 5.37C6.52 5.53 5.52 4.4 5.18 3.26C4.94 2.45 4.83 0.96 5.76 0.3C6.5 -0.22 7.5 0.07 7.63 0.11C8.11 0.26 8.48 0.56 8.98 0.96C9.14 1.09 9.38 1.28 9.64 1.58C10.1 2.08 10.59 2.62 10.45 2.97C10.28 3.4 9.39 3.03 8.54 3.61C7.62 4.22 7.82 5.22 7.22 5.37L7.21 5.37Z" fill="#FFEFDC" fill-opacity="1.000000" fill-rule="nonzero"/>
		<path d="M8.37 7.35C8.16 7.34 8.01 7.16 7.98 7.11C7.66 6.69 8.07 5.96 8.15 5.81C8.44 5.29 8.85 5.03 9.18 4.82C9.44 4.66 10 4.31 10.74 4.31C10.96 4.31 11.33 4.32 11.52 4.57C11.55 4.62 11.66 4.74 11.63 4.88C11.57 5.26 10.6 5.04 9.81 5.57C8.91 6.18 8.9 7.35 8.36 7.34L8.37 7.35Z" fill="#FFEFDC" fill-opacity="1.000000" fill-rule="nonzero"/>
		<path d="M43.83 29.28C42.99 24.79 39.66 22.13 39.19 21.86C38.93 21.71 38.69 21.5 38.43 21.34C38.25 21.22 38 21.06 37.85 20.76C37.83 20.71 37.81 20.66 37.79 20.59C37.73 20.36 37.8 20.11 37.79 19.25C37.79 19.25 37.79 19.11 37.73 17.92C37.7 17.19 37.55 15.09 37.04 13.63C35.85 10.2 32.94 8.36 32.17 7.89C31.53 7.5 29.94 6.61 27.77 6.27C26.86 6.13 26.54 6.19 24.23 6.21C23.45 6.22 21.76 6.2 18.38 6.15C17.09 6.13 15.22 6.1 12.94 6.04C12.94 6.04 12.94 6.05 12.95 6.05C12.96 6.06 12.96 6.07 12.96 6.08C13.02 6.14 13.09 6.21 13.14 6.27C13.16 6.29 13.17 6.31 13.2 6.33C13.26 6.4 13.3 6.42 13.38 6.49C13.4 6.51 13.43 6.55 13.47 6.59C13.51 6.65 13.55 6.71 13.6 6.77C13.7 6.9 13.8 7 13.89 7.08C14.07 7.2 14.21 7.35 14.34 7.53C14.45 7.65 14.55 7.78 14.64 7.93C14.67 7.98 14.72 8.04 14.78 8.11C15.08 8.48 15.35 8.72 15.43 8.8C15.51 8.87 15.79 9.18 16.35 9.78C17.51 11.03 18.34 12.2 18.82 12.59C18.99 12.73 19.12 12.89 19.22 13.07C19.38 13.08 19.52 13.1 19.61 13.11C19.91 13.16 20.04 13.21 20.31 13.21C20.32 13.21 20.39 13.21 20.53 13.2C20.88 13.19 21.02 13.18 21.15 13.17C21.4 13.16 21.57 13.16 21.8 13.16C23.18 13.14 23.54 13.13 24.17 13.14C25.6 13.14 26.31 13.15 26.72 13.24C27.44 13.4 28.72 13.8 29.83 14.87C29.86 14.9 29.94 14.97 30.03 15.07C31.58 16.68 31.82 18.53 31.93 19.43C32.06 20.43 31.71 21.32 31.64 21.58C31.3 22.79 30.84 23.22 31.06 23.66C31.31 24.18 32.07 23.94 33.26 24.3C35.46 24.96 36.59 26.86 36.72 27.07C37.33 28.12 37.44 29.11 37.5 29.7C37.56 30.24 37.65 31.28 37.26 32.47C36.89 33.62 36.13 34.68 35.92 34.96C35.89 34.99 35.87 35.03 35.87 35.03C35.78 35.15 35.59 35.38 35.36 35.66C34.82 36.3 34.8 36.22 34.76 36.34C34.74 36.43 34.72 36.62 35.52 37.75C35.8 38.15 35.92 38.28 36.18 38.7C36.52 39.21 36.56 39.36 37.43 40.48C38.33 41.63 38.6 41.86 38.79 41.91C38.81 41.92 38.84 41.92 38.88 41.92C39.27 41.96 39.61 41.65 39.8 41.46C40.52 40.71 41.31 39.44 41.31 39.44C41.31 39.44 42.2 38.02 42.66 36.92C42.68 36.88 42.7 36.84 42.7 36.84C42.78 36.64 42.99 36.12 43.16 35.54C43.66 33.94 44.28 31.86 43.8 29.28L43.83 29.28Z" fill="#FFEFDC" fill-opacity="1.000000" fill-rule="nonzero"/>
		<path d="M12.94 6.04C15.03 8.43 17.12 10.82 19.21 13.21C19.57 13.21 19.94 13.21 20.32 13.21C21.11 13.2 21.88 13.17 22.63 13.13L12.94 6.04Z" fill="#FFEFDC" fill-opacity="1.000000" fill-rule="nonzero"/>
		<path d="M34.5 36.57L38.77 42.45L39.85 41.42L34.83 36.26L34.5 36.57Z" fill="#FFEFDC" fill-opacity="1.000000" fill-rule="nonzero"/>
	</g>
</svg>
