<svg width="90.000000" height="90.000000" viewBox="0 0 90 90" fill="none" xmlns="http://www.w3.org/2000/svg" xmlns:xlink="http://www.w3.org/1999/xlink">
	<desc>
			Created with Pixso.
	</desc>
	<defs>
		<clipPath id="clip366_1099">
			<rect id="person-1" rx="0.000000" width="86.250000" height="86.250000" transform="translate(1.875000 1.875000)" fill="white" fill-opacity="0"/>
		</clipPath>
	</defs>
	<rect id="person-1" rx="0.000000" width="86.250000" height="86.250000" transform="translate(1.875000 1.875000)" fill="#FFFFFF" fill-opacity="0"/>
	<g clip-path="url(#clip366_1099)">
		<path id="Vector" d="M17.86 71.33C16.77 75.33 20.23 78.75 24.37 78.75L65.62 78.75C69.76 78.75 73.22 75.33 72.13 71.33C68.88 59.39 57.96 50.62 44.99 50.62C32.03 50.62 21.11 59.39 17.86 71.33Z" stroke="#FFEFDC" stroke-opacity="1.000000" stroke-width="4.687500"/>
		<path id="Vector" d="M45 39.37C37.75 39.37 31.87 33.49 31.87 26.25C31.87 19 37.75 13.12 45 13.12C52.24 13.12 58.12 19 58.12 26.25C58.12 33.49 52.24 39.37 45 39.37Z" stroke="#FFEFDC" stroke-opacity="1.000000" stroke-width="4.687500"/>
	</g>
</svg>
